<?xml version="1.0" standalone="no"?>
<!DOCTYPE svg PUBLIC "-//W3C//DTD SVG 20010904//EN"
 "http://www.w3.org/TR/2001/REC-SVG-20010904/DTD/svg10.dtd">
<svg version="1.0" xmlns="http://www.w3.org/2000/svg"
 width="794.000000pt" height="718.000000pt" viewBox="0 0 794.000000 718.000000"
 preserveAspectRatio="xMidYMid meet">

<g transform="translate(0.000000,718.000000) scale(0.100000,-0.100000)"
fill="#000000" stroke="none">
<path d="M15 6307 c0 -710 2 -856 13 -852 8 3 49 5 93 5 l79 0 0 463 0 464 28
24 c27 23 39 31 95 62 12 6 26 18 30 25 5 7 12 10 17 7 5 -3 27 3 49 14 34 18
55 20 153 17 62 -2 123 -6 134 -9 33 -8 94 -75 101 -108 3 -16 10 -29 15 -29
6 0 8 -7 5 -15 -4 -8 -2 -17 3 -20 5 -3 9 -16 9 -28 -6 -137 4 -877 11 -877 6
0 10 7 10 16 0 14 1 14 16 0 11 -12 35 -16 85 -16 l70 0 -3 473 c-2 328 -6
480 -14 497 -7 14 -17 44 -23 67 -6 23 -17 48 -24 55 -6 8 -17 23 -24 33 -6
11 -16 19 -23 17 -6 -1 -8 2 -5 8 4 7 -2 14 -14 17 -11 3 -23 14 -26 24 -4 10
-11 19 -16 19 -5 0 -22 9 -37 20 -24 17 -44 20 -177 21 -117 0 -161 -3 -199
-16 -52 -18 -96 -42 -108 -60 -4 -5 -8 -6 -8 -1 0 6 -13 -3 -30 -19 -16 -16
-30 -25 -30 -21 0 4 -16 -5 -35 -20 l-35 -26 0 301 0 301 -27 1 -28 1 30 7 30
7 -32 8 c-18 4 -60 6 -95 4 l-63 -3 0 -858z m265 253 c0 -5 -5 -10 -11 -10 -5
0 -7 5 -4 10 3 6 8 10 11 10 2 0 4 -4 4 -10z"/>
<path d="M1390 7065 l0 -105 105 0 105 0 0 105 0 105 -105 0 -105 0 0 -105z"/>
<path d="M5370 6309 l0 -862 53 7 c28 3 73 6 100 6 l47 0 0 393 c-1 215 -1
398 -1 405 1 9 95 12 439 12 l437 0 0 -407 0 -408 93 -3 92 -3 0 861 0 861
-92 -3 -93 -3 -3 -362 -2 -363 -438 0 -437 0 3 365 2 365 -100 0 -100 0 0
-861z m1117 825 c-3 -3 -12 -4 -19 -1 -8 3 -5 6 6 6 11 1 17 -2 13 -5z m61 -1
c-10 -2 -26 -2 -35 0 -10 3 -2 5 17 5 19 0 27 -2 18 -5z m-118 -710 c0 -5
-195 -8 -434 -8 -239 0 -432 3 -429 8 2 4 197 7 434 7 236 0 429 -3 429 -7z
m-242 -40 c-114 -2 -303 -2 -420 0 -117 1 -24 2 207 2 231 0 327 -1 213 -2z"/>
<path d="M7020 7065 l0 -105 105 0 106 0 -2 104 -1 104 -104 1 -104 2 0 -106z
m187 -27 c-2 -13 -4 -3 -4 22 0 25 2 35 4 23 2 -13 2 -33 0 -45z"/>
<path d="M1400 6105 l0 -655 95 0 95 0 0 655 0 655 -95 0 -95 0 0 -655z"/>
<path d="M1970 6756 c0 -3 7 -12 16 -20 11 -12 36 -16 95 -16 72 0 79 2 79 20
0 19 -7 20 -95 20 -52 0 -95 -2 -95 -4z"/>
<path d="M2555 6754 c-11 -2 -44 -9 -73 -15 -29 -6 -50 -15 -47 -20 3 -5 -1
-6 -9 -3 -18 7 -134 -56 -208 -113 l-58 -44 0 75 0 75 -95 3 -95 3 2 -630 3
-630 84 -3 c49 -2 88 1 95 8 7 7 -15 10 -71 10 -45 0 -85 5 -88 10 -4 6 25 10
79 10 l86 0 0 475 c0 392 2 473 13 469 8 -3 20 2 27 11 7 8 19 15 26 15 8 0
14 4 14 9 0 12 95 56 171 81 62 20 173 26 260 13 l57 -9 1 98 2 98 -34 0 c-19
0 -54 2 -78 4 -24 3 -53 3 -64 0z"/>
<path d="M3325 6749 c-129 -11 -210 -37 -221 -71 -4 -14 -12 -18 -26 -15 -24
7 -114 -75 -102 -94 4 -7 3 -10 -2 -6 -14 8 -27 -3 -53 -45 -20 -34 -21 -37
-4 -32 10 3 6 -2 -9 -11 -16 -8 -29 -20 -29 -25 -2 -11 -5 -26 -9 -37 -1 -5
-2 -11 -1 -15 0 -5 -3 -8 -8 -8 -30 0 -61 -327 -41 -425 6 -28 12 -60 14 -72
10 -57 46 -154 56 -148 4 3 11 -2 14 -11 4 -10 2 -13 -6 -8 -6 4 2 -9 18 -29
16 -20 35 -37 42 -37 11 0 16 -13 13 -34 -1 -4 3 -14 10 -22 18 -22 132 -97
124 -82 -3 7 0 5 7 -4 15 -17 63 -34 87 -29 8 1 10 -2 6 -10 -6 -9 -1 -10 19
-5 16 4 25 3 22 -2 -3 -5 17 -7 45 -4 36 3 54 1 59 -9 7 -10 26 -11 107 -1 54
6 99 16 101 22 2 5 7 8 12 5 10 -6 110 35 110 46 0 5 7 9 15 9 17 0 125 103
125 120 0 6 11 23 24 37 14 15 23 30 20 35 -3 4 0 8 5 8 6 0 11 7 11 15 0 9 8
28 18 42 10 17 12 24 4 19 -10 -6 -11 -4 -4 10 35 68 41 99 49 239 8 149 -35
362 -83 410 -9 8 -13 15 -9 15 12 0 -39 64 -92 117 -53 52 -125 100 -160 108
-10 2 -31 8 -47 14 -16 6 -37 9 -47 6 -11 -4 -19 -2 -19 5 0 6 -4 9 -8 6 -4
-3 -24 -2 -43 2 -18 4 -70 4 -114 1z m208 -178 c103 -44 174 -140 203 -276 29
-133 10 -436 -31 -485 -16 -19 -29 -52 -26 -65 2 -5 -1 -7 -4 -3 -8 8 -52 -42
-48 -54 2 -5 0 -7 -5 -6 -4 2 -23 -7 -42 -18 -19 -12 -53 -27 -75 -34 -22 -7
-50 -17 -62 -23 -13 -6 -44 -7 -75 -2 -29 4 -62 8 -73 9 -11 1 -47 15 -80 31
-33 16 -63 28 -67 27 -5 -1 -8 4 -8 11 0 8 -10 22 -22 33 l-23 19 20 -25 20
-25 -22 19 c-13 11 -23 26 -23 35 0 9 -7 26 -15 37 -51 74 -81 262 -66 414 6
50 7 98 4 107 -4 11 -2 14 5 9 8 -5 10 -2 6 9 -4 8 1 26 10 40 9 14 13 25 10
25 -4 0 0 8 8 18 16 17 33 61 30 74 -1 4 5 5 14 1 8 -3 14 -2 13 3 -4 23 2 44
14 44 10 -1 62 23 157 71 30 15 204 1 253 -20z m-473 -151 c0 -5 -8 -10 -17
-10 -15 0 -16 2 -3 10 19 12 20 12 20 0z m-36 -839 c-7 -7 -34 21 -28 31 3 5
12 1 19 -9 7 -10 12 -20 9 -22z"/>
<path d="M7030 6105 l0 -655 95 0 96 0 -1 655 -2 655 -94 0 -94 0 0 -655z"/>
<path d="M4595 6744 c-84 -10 -135 -26 -135 -42 0 -14 -2 -14 -9 -3 -8 12 -16
12 -54 -3 -79 -30 -75 -41 14 -38 74 3 79 2 79 -17 0 -20 6 -21 118 -22 130
-2 125 -5 -22 -15 -54 -3 -93 -9 -87 -14 9 -5 8 -9 -4 -14 -25 -9 -27 -8 -20
13 4 15 -1 19 -32 25 -21 3 -55 6 -75 6 -24 0 -38 5 -38 13 0 8 -4 7 -10 -3
-7 -11 -10 -12 -10 -2 0 9 -9 7 -30 -8 -16 -12 -30 -30 -30 -40 0 -11 -6 -23
-13 -27 -48 -31 -83 -204 -53 -263 8 -18 13 -37 9 -43 -3 -6 -1 -7 5 -3 8 5
12 -1 12 -14 0 -16 4 -20 16 -16 8 3 13 2 10 -2 -9 -15 50 -84 93 -109 24 -14
40 -20 36 -12 -4 8 2 4 14 -8 12 -13 32 -24 44 -25 12 -1 31 -2 42 -3 11 -1
32 -7 47 -13 15 -6 35 -9 43 -6 8 4 15 1 15 -6 0 -7 8 -9 20 -5 12 4 26 2 33
-3 13 -11 164 -50 209 -55 15 -2 31 -7 35 -11 4 -5 -3 -5 -17 -2 -21 6 -20 4
8 -15 42 -28 58 -61 61 -126 3 -62 -39 -166 -63 -157 -8 3 -17 1 -20 -5 -10
-15 -102 -38 -184 -46 -71 -6 -197 12 -247 36 -12 6 -28 11 -37 13 -9 1 -24 8
-34 16 -16 13 -17 13 -9 0 5 -8 -4 -4 -21 10 -16 14 -48 34 -69 45 -22 11 -44
26 -48 33 -20 31 -27 5 -27 -97 l0 -109 49 -21 c28 -12 57 -18 67 -14 12 5 15
3 9 -6 -6 -10 -2 -11 15 -6 17 5 21 4 15 -6 -6 -9 -2 -11 13 -7 12 4 20 3 17
-2 -3 -4 6 -10 20 -12 13 -3 22 -1 19 3 -8 13 4 11 29 -6 47 -31 340 -28 392
3 6 4 18 8 28 9 32 5 87 32 87 42 0 6 3 10 8 10 20 -3 31 3 37 21 3 11 15 20
25 20 10 0 28 14 40 30 12 17 19 30 16 30 -3 0 3 9 14 20 17 17 22 32 19 56 0
4 5 10 11 14 16 10 20 153 5 203 -6 21 -14 35 -18 31 -4 -4 -7 2 -7 14 0 32
-82 114 -105 106 -12 -5 -16 -4 -11 4 13 21 -72 52 -271 98 -108 25 -209 52
-224 60 -15 8 -35 14 -44 14 -9 0 -14 4 -10 9 3 5 1 12 -5 16 -6 3 -19 25 -30
47 -16 34 -18 48 -10 85 6 24 8 48 6 52 -3 4 6 15 19 25 14 10 22 22 19 27 -3
5 1 9 8 9 8 0 19 5 26 12 26 26 91 40 204 43 111 4 121 2 212 -29 53 -19 96
-32 96 -30 0 2 9 -5 20 -16 11 -11 27 -20 35 -20 8 0 15 -3 15 -8 0 -4 9 -13
20 -20 20 -12 20 -10 20 92 l0 104 -47 20 c-74 31 -149 49 -248 61 -89 11
-111 11 -170 5z m442 -186 c-2 -13 -4 -3 -4 22 0 25 2 35 4 23 2 -13 2 -33 0
-45z m-70 0 c-2 -13 -4 -5 -4 17 -1 22 1 32 4 23 2 -10 2 -28 0 -40z m-667 22
c0 -11 -4 -20 -9 -20 -5 0 -7 9 -4 20 3 11 7 20 9 20 2 0 4 -9 4 -20z m-75
-219 c0 -55 -3 -94 -7 -88 -15 23 -9 187 6 187 1 0 1 -45 1 -99z"/>
<path d="M648 6713 c7 -3 16 -2 19 1 4 3 -2 6 -13 5 -11 0 -14 -3 -6 -6z"/>
<path d="M7680 5575 l0 -125 125 0 125 0 0 125 0 125 -125 0 -125 0 0 -125z"/>
<path d="M600 4070 c0 -8 -10 -11 -32 -7 -33 4 -139 -23 -168 -44 -12 -8 -9
-9 10 -4 19 5 22 4 10 -4 -8 -6 -27 -11 -42 -11 -21 0 -25 -4 -21 -20 5 -17 0
-20 -27 -20 -36 0 -92 -29 -86 -45 2 -5 -7 -11 -20 -11 -23 -2 -24 1 -24 67
l0 69 -90 0 c-65 0 -90 -3 -90 -12 0 -7 -1 -293 -2 -634 l-3 -622 92 -1 93 -2
0 487 c0 544 -8 487 75 541 22 14 46 33 53 42 11 13 12 13 6 1 -5 -10 0 -9 14
4 12 11 22 16 22 13 0 -3 25 5 55 18 48 22 67 24 147 21 105 -3 146 -17 198
-68 32 -30 38 -46 57 -133 19 -93 20 -130 19 -512 l-1 -413 93 0 92 0 0 456
c0 440 -8 584 -32 584 -5 0 -8 6 -6 13 4 22 -43 109 -77 141 -47 44 -63 56
-74 56 -5 0 -11 3 -13 8 -12 27 -228 67 -228 42z m200 -246 c0 -8 -5 -12 -10
-9 -6 4 -8 11 -5 16 9 14 15 11 15 -7z"/>
<path d="M1735 4063 c-11 -3 -24 -9 -30 -13 -5 -4 -26 -11 -45 -15 -19 -5 -29
-10 -22 -12 6 -3 12 -13 12 -24 0 -13 -7 -19 -23 -19 -33 0 -40 10 -19 27 9 8
-2 5 -24 -7 -33 -18 -41 -27 -37 -44 4 -17 3 -18 -6 -6 -10 13 -19 7 -61 -38
-110 -118 -161 -259 -165 -464 -2 -80 0 -128 7 -128 5 0 9 -17 8 -37 -1 -21
-1 -40 0 -43 2 -3 4 -14 6 -25 4 -26 12 -60 14 -60 1 0 3 -10 6 -22 6 -33 61
-131 101 -180 34 -41 105 -101 89 -75 -10 16 16 16 32 0 15 -15 16 -31 0 -22
-7 4 -8 3 -4 -5 4 -6 11 -9 16 -6 5 3 18 -3 30 -15 22 -22 45 -27 35 -7 -4 6
-1 5 7 -3 21 -25 125 -45 228 -44 99 0 204 19 194 35 -3 5 1 6 9 3 8 -3 18 -1
22 5 3 6 14 11 25 11 10 0 21 7 24 16 3 8 10 13 14 10 11 -6 56 34 65 57 3 9
13 17 21 17 19 0 78 69 70 82 -4 7 -2 8 5 4 6 -4 14 0 17 11 3 10 18 47 34 83
59 137 74 307 41 475 -13 60 -29 123 -36 140 -8 16 -21 47 -29 68 -9 21 -20
36 -25 33 -5 -4 -12 -2 -16 4 -3 5 -1 10 4 10 7 0 7 7 -1 20 -7 11 -20 18 -28
15 -9 -3 -21 7 -33 28 l-17 32 25 -30 c14 -16 25 -25 25 -18 0 32 -173 153
-219 153 -11 0 -22 4 -25 9 -3 5 -15 7 -26 4 -11 -3 -20 -1 -20 5 0 10 -235
14 -275 5z m464 -90 c2 -2 -3 -3 -11 -3 -9 0 -19 7 -22 16 -6 15 -4 15 11 3
10 -7 20 -15 22 -16z m-686 -68 c-3 -9 -8 -14 -10 -11 -3 3 -2 9 2 15 9 16 15
13 8 -4z m509 -8 c20 -8 39 -13 42 -9 3 3 6 1 6 -4 0 -5 23 -27 50 -49 28 -22
50 -45 50 -52 0 -6 9 -18 20 -26 11 -8 22 -27 25 -43 2 -16 12 -67 22 -114 16
-72 18 -107 12 -220 -4 -80 -14 -153 -23 -179 -9 -24 -13 -48 -9 -54 3 -5 0
-15 -8 -21 -19 -15 -49 -62 -49 -78 0 -6 7 -3 16 8 14 18 15 18 4 -4 -6 -12
-15 -20 -21 -17 -5 4 -29 -10 -54 -31 -27 -21 -75 -46 -115 -60 -61 -20 -77
-21 -144 -13 -41 5 -91 16 -110 24 -20 9 -36 13 -36 11 0 -3 -14 8 -32 24 -17
16 -34 29 -37 28 -21 -2 -29 7 -40 43 -9 28 -17 39 -27 35 -9 -4 -13 2 -12 17
0 12 -7 43 -15 68 -29 80 -40 235 -26 341 7 51 12 109 12 128 -1 19 1 29 4 22
6 -16 44 62 39 81 -1 6 -1 8 2 4 6 -11 41 42 38 57 -2 6 -1 7 2 3 6 -11 32 13
32 30 0 8 6 13 13 10 6 -2 24 4 39 15 15 11 47 25 70 33 56 17 211 13 260 -8z
m-325 -13 c-3 -3 -12 -4 -19 -1 -8 3 -5 6 6 6 11 1 17 -2 13 -5z"/>
<path d="M2800 2895 l0 -125 120 0 120 0 0 125 0 125 -120 0 -120 0 0 -125z
m80 -90 c0 -10 -10 -15 -27 -15 l-28 0 25 14 c14 8 26 14 28 15 1 1 2 -6 2
-14z"/>
<path d="M17 1723 c-4 -3 -7 -390 -7 -858 l0 -852 95 -2 95 -2 2 473 3 473 84
57 c47 31 87 56 90 56 21 -2 31 4 25 14 -4 7 -3 8 5 4 6 -4 17 -3 24 2 7 5 64
9 127 8 100 -1 121 -4 160 -25 25 -12 49 -29 53 -37 4 -8 16 -14 25 -14 13 0
14 -2 4 -9 -11 -6 -10 -10 3 -15 9 -3 15 -12 12 -20 -3 -8 1 -36 9 -63 12 -39
15 -124 14 -475 l-1 -428 96 0 96 0 -4 462 c-1 255 -6 472 -9 483 -3 11 -11
40 -18 65 -13 50 -58 127 -92 156 -20 18 -21 18 -15 1 4 -11 3 -16 -3 -12 -6
3 -10 14 -10 23 0 16 -31 43 -46 41 -4 0 -10 5 -14 11 -10 17 -124 40 -190 38
-54 -1 -54 -1 -15 -8 32 -6 22 -8 -45 -8 -89 -1 -164 -22 -221 -63 -15 -10
-30 -19 -34 -19 -9 0 -89 -62 -93 -72 -17 -38 -22 32 -22 307 l0 315 -88 0
c-49 0 -92 -3 -95 -7z m939 -885 c4 -6 3 -8 -4 -4 -6 3 -13 -2 -15 -11 -4 -14
-5 -13 -6 5 -1 23 13 30 25 10z m-39 -625 c-1 -109 -2 -23 -2 192 0 215 1 304
2 198 2 -105 2 -281 0 -390z"/>
<path d="M4310 1314 c-52 -9 -109 -24 -137 -36 -15 -6 -30 -12 -33 -13 -30 -8
-50 -18 -50 -26 0 -5 -7 -9 -15 -9 -15 0 -139 -119 -132 -127 3 -2 -6 -15 -20
-29 -13 -13 -21 -29 -18 -34 3 -6 2 -10 -3 -10 -15 0 -41 -67 -35 -91 4 -15 2
-20 -5 -15 -14 9 -28 -43 -42 -159 -12 -99 -5 -227 16 -290 7 -22 16 -55 19
-74 8 -45 43 -121 56 -121 6 0 8 -4 5 -9 -11 -17 99 -142 149 -169 17 -9 36
-15 44 -13 7 1 10 -2 6 -8 -5 -10 8 -15 19 -8 2 1 13 -6 24 -16 11 -10 36 -19
56 -20 20 -1 36 -5 36 -8 0 -7 1 -7 100 -15 109 -8 280 32 329 77 11 10 25 19
31 19 15 0 100 82 94 91 -2 5 5 13 16 19 11 6 20 15 20 21 0 6 9 23 19 38 11
15 23 40 27 57 4 16 16 47 28 69 14 27 20 57 19 97 0 32 3 56 6 53 4 -2 7 59
6 136 -1 91 -5 143 -12 147 -6 4 -11 18 -11 32 1 65 -49 180 -102 240 -18 19
-37 42 -43 50 -26 33 -109 89 -124 83 -10 -4 -14 -2 -10 4 20 32 -237 84 -333
67z m15 -153 c-3 -6 8 -8 29 -4 54 9 167 -15 224 -48 52 -30 122 -111 136
-159 21 -71 44 -175 39 -183 -2 -4 0 -13 6 -20 6 -9 7 -47 0 -121 -6 -59 -8
-114 -5 -122 3 -8 1 -14 -5 -14 -6 0 -8 -9 -4 -21 5 -15 4 -19 -4 -15 -7 5
-11 -1 -11 -14 0 -12 -7 -34 -15 -49 -8 -16 -11 -31 -8 -35 4 -3 -2 -13 -13
-21 -10 -8 -16 -15 -11 -15 4 0 -14 -21 -40 -46 -58 -55 -134 -96 -188 -100
-22 -2 -64 -6 -94 -9 -37 -5 -51 -3 -47 4 5 7 -3 11 -21 11 -15 0 -41 7 -57
15 -15 8 -33 15 -40 15 -20 0 -102 93 -128 145 -45 89 -61 190 -55 344 3 75 8
147 12 161 5 21 4 22 -4 5 -12 -26 -13 2 -1 30 6 14 9 15 10 5 1 -14 19 21 24
46 1 6 10 23 19 37 10 15 15 27 12 27 -3 0 15 21 40 46 51 50 222 140 200 105z
m605 -411 c0 -16 -4 -30 -10 -30 -5 0 -10 14 -10 30 0 17 5 30 10 30 6 0 10
-13 10 -30z"/>
<path d="M1580 1289 c-58 -11 -120 -22 -137 -26 l-33 -5 0 -99 c0 -56 4 -99
10 -99 17 0 60 23 60 32 0 5 4 7 8 4 5 -3 31 2 58 10 63 20 79 23 134 30 25 3
55 10 67 16 21 11 62 8 173 -12 101 -17 120 -22 120 -32 0 -6 7 -7 16 -4 8 3
13 2 10 -2 -2 -4 11 -23 29 -41 34 -33 50 -82 57 -176 l3 -40 -130 -7 c-72 -3
-150 -11 -175 -17 -25 -6 -63 -11 -84 -11 -50 0 -164 -28 -193 -47 -12 -8 -26
-14 -30 -14 -18 2 -73 -21 -73 -30 0 -5 -11 -14 -25 -19 -18 -7 -23 -14 -18
-26 4 -12 3 -15 -5 -10 -7 4 -12 2 -12 -4 0 -6 -4 -9 -9 -5 -5 3 -12 -4 -16
-15 -3 -11 -10 -20 -14 -20 -5 0 -19 -24 -32 -52 -21 -46 -24 -68 -23 -168 0
-101 3 -121 25 -165 13 -27 30 -49 37 -48 7 2 12 -7 12 -20 0 -26 32 -61 45
-50 4 5 5 3 2 -3 -4 -7 11 -23 33 -38 22 -14 40 -23 40 -19 0 5 4 3 8 -4 4 -7
37 -20 72 -29 68 -17 203 -14 241 6 10 6 19 8 19 4 0 -3 6 -1 14 5 8 6 18 11
22 10 5 -1 12 0 17 1 4 1 10 3 15 4 29 7 52 19 52 27 0 6 4 8 9 5 5 -3 43 17
85 44 42 28 79 50 81 50 3 0 5 -36 5 -80 l0 -80 95 0 95 0 -3 463 c-2 254 -7
482 -10 507 -7 57 -23 100 -38 100 -6 0 -9 6 -6 13 6 18 -12 49 -25 41 -6 -4
-8 -3 -5 3 10 16 -68 82 -130 110 -116 53 -352 67 -543 32z m-125 -199 c3 -5
-1 -10 -9 -10 -9 0 -16 5 -16 10 0 6 4 10 9 10 6 0 13 -4 16 -10z m695 -575
c0 -174 -1 -186 -20 -197 -22 -14 -26 -34 -8 -40 7 -3 5 -7 -6 -11 -9 -4 -15
-3 -12 1 2 4 1 14 -5 22 -6 10 -9 11 -9 3 0 -7 -4 -13 -10 -13 -5 0 -32 -13
-58 -30 -27 -16 -54 -30 -60 -30 -6 0 -23 -5 -37 -10 -24 -9 -26 -12 -14 -27
12 -15 12 -16 -6 -9 -11 5 -38 9 -60 11 -39 3 -39 3 -5 -4 33 -6 33 -7 12 -15
-29 -10 -142 2 -142 16 0 5 -8 8 -17 7 -20 -2 -45 5 -87 27 -22 11 -31 12 -37
3 -5 -8 -8 -4 -11 12 -1 13 -8 24 -15 24 -6 0 -15 3 -19 7 -4 5 -2 8 5 8 8 0
7 7 -3 22 -30 47 -39 160 -17 203 8 17 15 32 16 35 1 12 90 90 102 90 7 0 13
4 13 8 0 4 12 9 26 10 15 1 33 7 39 12 7 6 17 10 21 8 5 -1 38 3 74 10 71 14
215 29 298 31 l52 1 0 -185z"/>
<path d="M3095 1304 c-64 -14 -137 -40 -187 -66 -53 -28 -168 -130 -168 -149
0 -5 -9 -18 -20 -29 -12 -12 -17 -26 -13 -36 4 -11 2 -15 -4 -11 -7 5 -9 -1
-5 -15 3 -13 1 -19 -5 -15 -10 6 -48 -62 -39 -71 3 -2 -2 -18 -10 -34 -8 -16
-14 -37 -13 -46 1 -9 -1 -24 -5 -33 -19 -42 -8 -296 15 -355 6 -16 13 -38 15
-48 6 -33 47 -126 55 -126 4 0 10 -8 13 -17 6 -19 76 -95 115 -126 39 -31 100
-59 112 -51 8 4 9 3 5 -4 -4 -7 -2 -13 3 -13 17 -2 24 -4 66 -19 61 -22 293
-20 370 3 33 10 69 22 80 26 11 5 43 18 70 29 l50 21 3 87 c3 88 -3 127 -16
109 -9 -12 -32 -27 -102 -62 -30 -15 -57 -31 -60 -34 -9 -10 -164 -43 -200
-43 -101 1 -208 31 -248 70 -7 8 -19 17 -26 21 -7 5 -27 27 -44 51 -16 23 -32
39 -34 35 -3 -5 -3 -2 -1 6 2 8 -3 24 -11 36 -24 36 -46 167 -46 268 0 186 34
288 130 386 13 15 24 30 22 34 -1 5 2 6 8 2 5 -3 10 -1 10 4 0 6 3 10 8 9 4
-1 21 5 37 14 81 42 245 49 344 14 24 -9 48 -13 54 -9 5 3 7 2 4 -4 -8 -12 61
-46 75 -37 6 4 9 3 6 -2 -4 -5 16 -23 43 -41 l49 -32 0 103 0 102 -37 19 c-21
10 -42 18 -47 16 -4 -1 -14 3 -20 9 -7 5 -16 7 -19 3 -4 -3 -7 -1 -7 6 0 7 -5
9 -11 5 -6 -3 -14 -1 -18 5 -17 27 -268 52 -346 35z m-145 -74 c-6 -11 -15
-18 -21 -14 -6 4 -6 11 2 20 17 21 31 17 19 -6z"/>
</g>
</svg>
